<svg xmlns="http://www.w3.org/2000/svg" version="1.1" xmlns:xlink="http://www.w3.org/1999/xlink" xmlns:svgjs="http://svgjs.dev/svgjs" width="1000" height="1125" viewBox="0 0 1000 1125"><g transform="matrix(1,0,0,1,1.7053025658242404e-13,0)"><svg viewBox="0 0 320 360" data-background-color="#ffffff" preserveAspectRatio="xMidYMid meet" height="1125" width="1000" xmlns="http://www.w3.org/2000/svg" xmlns:xlink="http://www.w3.org/1999/xlink"><g id="tight-bounds" transform="matrix(1,0,0,1,-5.684341886080802e-14,0)"><svg viewBox="0 0 320 360" height="360" width="320"><g><svg></svg></g><g><svg viewBox="0 0 320 360" height="360" width="320"><g><path xmlns="http://www.w3.org/2000/svg" d="M85.508 32.884c0-1.117 0.558-2.233 1.675-2.233 1.117 0 2.233 0.558 2.234 2.233 0.558 0 1.675 0 2.233-0.558 2.233 0 4.467-0.558 6.141 0 1.675 0.558 2.792 0.558 4.467 1.117 1.675 0.558 2.792 0 3.908-0.559 2.233-0.558 3.908-1.675 6.141-2.233 1.117-0.558 1.675-0.558 2.792-0.558 1.117-0.558 2.233-0.558 3.908-1.117 2.792-0.558 5.583-1.117 7.817-2.233 2.233-1.117 4.467-1.117 6.699-1.675 1.117 0 1.675-0.558 2.792-1.117 0.558 0 0.558-0.558 1.116-1.116 1.117-0.558 1.675-1.117 2.792-0.559 0.558 0.558 1.675 0.558 2.233 0h0.559c3.35 0 6.7-0.558 10.608 0 0.558 0 1.117 0 1.116 0 1.675-1.117 3.908-1.117 6.142-1.116 0.558 0 1.675 0 2.233 0h0.558c2.233 0 4.467 0 6.142 0.558 1.675 0 2.792 0.558 4.466 1.117 1.675 0 2.792 0 4.467 0.558 1.117 0 2.233 0 3.35 0 0.558 0 1.117 0 1.116 0 2.233 0.558 4.467 0.558 6.7 0.558 1.675 0.558 3.35 1.117 5.583 1.117 0.558 0 1.117 0 1.675 0 0.558 0 1.117 0.558 1.675 0.558l0.558 0.559c2.233 0 3.908 1.117 6.142 1.116 0.558 0 1.675 0 2.233 0.559 1.675 1.117 3.908 1.675 6.141 1.675 1.117 0 1.675 0.558 2.234 1.116 1.675 0.558 2.792 1.117 4.466 1.675 1.117 0.558 2.233 0 3.35 0.558 1.675 0.558 3.908 1.117 5.583 2.792 1.117 1.117 2.233 1.117 3.908 2.233 0.558 0 1.117 0.558 1.675 1.117 1.675 1.117 3.35 2.233 5.025 2.791 0.558 0 1.117 0.558 1.675 0.559 1.675 1.117 3.35 2.792 5.583 3.908 1.117 0.558 1.675 1.117 2.792 1.675h0.558c1.675 1.675 3.908 2.792 5.583 4.466 1.675 1.675 2.792 2.792 5.025 3.909 0 0 0 0 0 0.558 0.558 1.117 1.117 1.675 2.233 2.233 1.117 0.558 1.675 1.117 2.234 1.675 1.675 1.117 3.35 2.233 4.466 3.35 0.558 0.558 1.117 1.117 2.233 2.233 0.558 0.558 1.117 1.117 1.675 1.117 2.233 0.558 3.35 2.233 5.025 3.908 1.117 1.117 2.792 2.792 3.908 3.908 0.558 0.558 1.117 1.675 1.675 2.792 1.117 3.35 2.792 6.7 4.467 9.491 0 0 0 0.558 0.558 1.117v0.558c1.117 1.117 1.675 2.792 2.792 3.908 0.558 0.558 0.558 1.117 1.116 1.675 1.117 1.675 1.675 3.908 2.792 5.583 1.675 2.792 2.792 5.583 3.908 8.375v0.558c0.558 1.117 1.117 2.233 1.675 3.908 0 1.117 1.117 2.233 1.675 3.909 0.558 2.792 2.233 5.583 2.791 8.933 0 0.558 0.558 1.117 0.559 2.233 0.558 1.675 1.117 3.35 1.675 5.025 0 0.558 0.558 1.117 1.116 1.675 1.117 1.117 1.117 2.233 1.117 3.35-0.558 2.233 0 4.467 0.558 6.699 0 0.558 0 1.117 0 2.234 0.558 2.233 1.117 5.025 1.117 7.258 0 0.558 0 1.675 0 2.233 0 1.675 0.558 3.35 1.675 5.025 0 0.558 0.558 0.558 0.558 0.558 0.558 0.558 1.117 1.675 1.675 2.233 0.558 0.558 0.558 0.558 1.117 1.117 1.117 1.117 1.675 2.233 1.675 3.908 0 0.558-0.558 1.675-0.559 2.233 0 0.558 0 1.675 0.559 2.234 0.558 0.558 0.558 1.117 0.558 1.675 0 0.558-0.558 1.117-1.117 1.116v0c-0.558 1.675-2.792 2.233-3.35 3.908-0.558 2.233-1.117 4.467-1.674 6.7-0.558 1.675-0.558 2.792-0.559 4.467 0 1.675-0.558 2.792-0.558 4.466-0.558 2.233-1.117 4.467-1.675 6.7 0 1.117-0.558 2.233-0.558 3.35 0.558 0.558 1.117 1.117 1.675 1.116 1.117 1.117 2.233 2.233 3.349 3.35 0.558 0.558 0.558 1.117 0 1.117-0.558 0.558-1.117 0.558-1.674 0.558-0.558-0.558-1.675-1.117-2.234-1.116-0.558-0.558-1.675-1.117-2.791-0.559 0 1.117-0.558 2.233-0.559 2.792-0.558 1.117-1.117 2.792-1.116 3.908-0.558 2.233-1.675 3.908-2.233 6.142-1.117 2.792-2.233 5.025-3.35 7.258-0.558 1.117-1.117 2.233-1.675 3.35v0c0 1.675-1.675 3.35-2.234 5.024-1.117 2.233-2.233 4.467-3.349 7.258-0.558 1.117-1.117 2.233-1.675 2.792-1.117 2.792-2.233 5.025-3.909 7.258-1.117 1.675-2.233 2.792-3.349 3.35-1.117 1.117-2.233 2.233-3.35 3.35-0.558 0.558-1.117 1.117-1.675 1.675-0.558 0.558-0.558 0.558-1.117 1.116-1.117 1.675-2.792 2.792-3.908 4.467-1.117 1.117-1.675 2.233-3.35 3.35-1.117 1.117-2.233 2.792-3.908 3.35-0.558 0.558-1.117 1.675-1.675 2.233-0.558 0.558-1.117 1.675-1.675 2.233 0 1.117 0.558 2.233 0.558 2.792 0 1.675-1.675 2.233-2.791 1.116-1.675-1.117-1.675-1.117-3.35 0-1.675 1.117-3.35 2.792-5.583 3.35-0.558 0-0.558 0.558-1.117 0.559-1.117 0.558-1.675 1.675-2.792 2.233-1.117 1.117-2.792 1.675-3.908 2.791-0.558 0.558-1.117 0.558-1.675 1.117-1.675 1.117-3.35 1.675-5.024 3.35-0.558 0.558-1.117 0.558-1.675 1.117 0 0.558 0 0.558 0 1.116 0 1.117-1.117 2.233-2.792 1.675-1.675-0.558-2.792 0-4.466 0-1.675 0.558-3.35 1.675-5.025 2.233-0.558 0-1.117 0.558-1.675 1.117-1.675 1.117-3.35 1.675-5.025 2.233-1.117 0-2.233 1.117-3.35 1.117-0.558 0-1.117 0.558-1.675 0.558h-0.558c-2.233 1.675-4.467 2.792-6.7 4.467-0.558 0-0.558 0.558-1.117 1.116-0.558 1.117-1.117 1.675-2.233 1.675-2.792 0-3.908 2.233-3.35 4.467 0 0.558 0.558 1.117 0.559 1.675 0.558 1.117 0 2.233-0.559 2.791-0.558 0.558-2.233 0.558-2.791-0.558-1.117-1.117-1.675-2.233-2.234-3.908-0.558-1.117-1.675-2.233-2.791-2.792-1.117-0.558-2.233-0.558-3.35 0-0.558 0-0.558 0.558-1.117 0.558-1.117 1.117-2.792 1.675-4.466 1.117-0.558 0-1.675 0-1.675 0.558-0.558 0.558-0.558 1.675 0 2.234 1.117 1.117 0.558 2.233 0.558 3.908 0 2.233-1.675 3.35-3.908 2.233-0.558-0.558-1.117-0.558-1.675-1.117-0.558 0-0.558-0.558-0.558-1.116-0.558-0.558-0.558-1.675-1.117-2.792-1.117 0.558-2.233 0.558-3.35 1.117-0.558 0-1.117 0.558-1.675 0.558-1.675 0-2.233 0-2.791-1.675-0.558-1.675-1.675-1.675-2.792-2.233-2.233-0.558-5.025-0.558-7.258-1.675h-0.558c-2.233-1.675-4.467-1.675-7.258-1.675-1.675 0-3.35 0.558-5.025 0.558-1.675 0-2.792 0.558-3.908 1.675-0.558 0.558-1.117 1.117-1.675 1.117-0.558-0.558-0.558-1.117-1.117-1.675v-0.558c0-0.558-0.558-1.117-1.116-0.559-1.117 0.558-2.233-0.558-3.35-1.116-0.558-0.558-1.675-1.675-1.675-2.792-0.558-0.558-1.117-1.117-1.675-1.116-1.117 0-2.792-0.558-3.908-0.559-0.558 0-1.117 0-1.117-0.558-0.558-0.558-1.117-0.558-2.233-0.558-0.558 0-0.558-0.558-1.117-0.559 1.117 1.117 1.675 2.233 2.233 3.35 0 0.558 0.558 0.558 0.559 1.117 0.558 1.117 0 1.675-1.675 1.675-1.117 0-1.117 0-1.675 0.558 0 1.117 0 1.675 0 2.792 0 0.558 0 1.117-1.117 1.675 0 0-0.558 0-0.558 0.558-0.558 0.558-0.558 1.117 0 1.675 1.675 1.117 2.792 1.675 4.466 2.233 1.675 0 1.675 1.117 2.234 2.233 0.558 1.117 0 1.675-0.559 2.792-1.117 1.117-2.233 2.233-3.35 3.35-1.675 0.558-2.792 2.233-4.466 2.233-1.117 0-2.233-0.558-2.792-1.675-0.558-2.792-0.558-5.025 0.559-7.816 0-0.558 0.558-1.117 0-1.675-5.025 0-5.025-1.117-5.025-1.675 0-1.117 0.558-1.675 0.558-2.792 0.558-1.117 0-1.675-1.675-2.233-0.558 0-1.117 0-1.675 0-0.558 0-0.558-0.558-1.675-0.558 1.117-0.558 1.675-0.558 2.792-1.117-0.558-2.233-1.117-3.908-2.792-5.025-0.558-0.558-1.117-1.117-1.116-2.233 0-1.675-1.117-2.792-1.675-3.908-1.117-1.675-3.35-2.233-5.025-2.233-1.675-0.558-2.792-0.558-4.467-1.117-1.675-0.558-3.35-2.233-5.024-2.792-0.558-0.558-1.117-1.117-2.234-1.674-2.233-1.117-3.908-2.792-5.583-4.467-1.117-0.558-1.675-1.675-2.791-2.233-1.117-1.117-1.675-2.233-2.792-2.792-1.117-1.117-2.233-2.233-3.908-3.35-1.675-1.117-2.792-2.792-4.467-4.466-1.117-1.675-2.792-2.792-4.466-3.908-0.558 0-1.117 0-1.675 0-0.558 0-1.117 0.558-1.675 0.558-1.675 0.558-2.792 1.675-4.467 2.233 0.558-0.558 0.558-0.558 0-1.675-0.558-0.558-1.117-1.117-1.674-1.116-1.117 0-2.233 0-3.35 0-2.233 0-4.467 0.558-6.7 0.558-1.675 0-3.908 0.558-5.583 1.117 0.558 1.117 0.558 1.675 1.116 2.791-1.117 0.558-2.233 0.558-3.35 0.558-0.558 0-1.675 0.558-2.233 1.117-0.558 0-0.558 0.558-1.116 0-1.117-0.558-2.233 0-3.35 0.558h-0.559c0 0 0-0.558 0.559-0.558 0.558-0.558 1.117-1.117 1.675-1.675 0.558-0.558 1.117-0.558 2.233-1.117-0.558-0.558-0.558-1.117-0.558-1.116-0.558-0.558-1.117-0.558-1.675 0-0.558 0.558-1.117 1.117-1.675 1.675-0.558 0.558-1.117 0.558-1.675 0-0.558-0.558-0.558-1.117 0-1.675 0-0.558 0.558-1.117 1.116-1.675 0.558-0.558 0.558-1.117 1.117-1.675-1.117-1.117-1.675-2.233-2.792-2.792-1.675-1.117-3.35-2.792-4.466-4.466-1.117-2.233-2.792-3.908-5.025-5.025-0.558-0.558-1.117-1.117-1.675-1.675-0.558-0.558-0.558-0.558-1.116-1.117-1.675 0.558-2.792 1.675-4.467 2.234-0.558 0-0.558 0.558-1.117 1.116-0.558 1.117-1.675 1.117-2.791 1.117-0.558 0-1.117-0.558-0.558-1.117 0.558-1.117 1.117-2.233 2.791-1.675 0 0 0.558 0 0.558-0.558 1.117-1.117 2.233-2.792 3.909-3.908-0.558-1.675-1.675-2.792-2.234-3.908-0.558-0.558-0.558-1.117-0.558-2.234 0-0.558 0-0.558-0.558-1.116 0 0-0.558 0-1.117 0.558-0.558 0.558-1.675 1.117-2.791 0 0-0.558 0-1.117 0.558-1.675l0.558-0.558c1.675-0.558 1.675-2.233 1.675-3.908v-0.559c-0.558-1.117-0.558-1.675 0.558-2.791 1.675-1.117 3.35-3.35 3.909-5.025 0.558-1.117 1.675-1.675 2.791-2.792 1.117-1.117 2.233-2.233 2.792-3.908h0.558c2.233 0.558 2.792-1.117 3.908-2.791 0-0.558 0-1.117 0.559-1.117 1.117-1.117 1.117-2.233 0.558-3.908 0-0.558-0.558-1.675-0.558-2.233 0-0.558 0-0.558-0.559-1.117-1.675-1.117-1.675-2.233 0-3.35 1.117-0.558 1.117-1.675 1.675-2.233 0.558-1.117 0.558-2.233 0.559-3.908-0.558-1.675-0.558-3.908-1.117-5.583-0.558-2.233-1.117-5.025-1.675-7.259 0-0.558 0-0.558 0-1.116 0-1.675 0-2.792-0.558-4.467-0.558-0.558-0.558-1.675-0.559-2.233-0.558-1.675-1.117-2.792-2.791-3.35-1.675-1.117-3.908-1.675-5.583-2.791-0.558-0.558-1.117 0-1.675 0.558-0.558 1.117-1.675 2.233-2.234 3.35-0.558 0.558-1.117 1.675-1.675 2.791-1.117 1.117-3.35 2.233-5.024 0.559-0.558-1.117-1.117-1.675 0-2.792 1.117-1.675 2.233-3.35 3.908-4.466 0.558-0.558 1.117-1.675 1.675-2.234 0.558-1.117 0.558-2.233 0.558-3.35-0.558-2.233-1.117-4.467-1.117-7.258 0-2.792 0-5.025 0.559-7.816 0.558-1.117 0.558-2.792 1.116-3.908 0-0.558 0.558-1.675 1.117-2.233 1.117-1.117 2.233-2.233 2.792-3.909 0.558-1.675 1.675-3.35 1.675-5.024 0-0.558 0.558-1.117 0.558-1.675 0-0.558 0.558-1.675 0.558-2.234-0.558-1.675 0-2.792 0.558-3.908 0.558-1.117 1.117-2.792 1.675-3.908 1.117-2.233 1.117-5.025 3.35-7.258 0.558-1.117 1.117-2.233 1.675-3.35 0.558-2.233 1.675-3.908 2.792-5.583 0.558-0.558 0.558-0.558 0.558-1.117 0.558-1.675 1.675-3.35 2.792-5.025 1.117-1.675 1.117-3.35 1.675-5.024 0-0.558 0-1.117 0.558-1.675 1.675-1.675 1.117-3.908 0.558-6.142-1.117-2.792-1.675-5.583-1.116-8.374 0-0.558 0-1.117 0.558-1.117 0.558-1.117 0.558-1.675 1.117-2.792v-0.558c1.117-1.117 2.233-2.792 3.908-3.35 2.233-1.117 4.467-1.675 7.258-2.233 2.233 0 4.467-1.117 6.141-3.35 0-0.558 0.558-0.558 1.117-1.117l0.558-0.558c0.558-1.117 1.117-1.675 1.675-2.233 1.117-1.117 2.233-2.792 3.35-3.908 1.117-1.117 2.233-2.792 3.908-4.467l0.559-0.558c1.117-1.117 2.233-2.233 3.349-2.792 1.117-1.117 2.233-2.233 3.35-3.35 1.117-1.117 1.675-2.233 2.792-3.35 1.117-0.558 2.233-1.675 3.35-2.791 1.117-1.117 2.233-2.233 2.791-2.792 1.117-1.117 2.792-2.233 3.909-2.791 1.117-0.558 2.233-1.117 2.791-2.792 0.558-1.675 1.117-2.792 1.675-4.466 0-1.117 0.558-2.233 1.117-3.35 0.558 0 1.117 0 2.233-0.558-0.558-0.558-1.117-0.558-1.117-1.117 0-0.558 0.558-1.117 0.559-1.117 0-0.558 0.558-1.117 0.558-1.675 0 0 0.558 0 0.558-0.558 0 0 0.558 0 0.559-0.558-1.117 0.558-1.675 0-2.234-0.559 0.558 0.558 1.117 0.558 2.234 1.117 0 0 0.558 0 0.558-0.558 0-0.558 0-1.117 0-1.117 0 0-0.558 0-1.117 0-0.558 0-1.117 0.558-1.675 0.558zM182.097 295.292c0-0.558-0.558-0.558-0.559-1.117-0.558-1.117 0-1.675 0.559-2.233 0.558-0.558 1.117-0.558 2.233-0.558 1.117 0.558 1.675 1.117 1.675 2.233 0 0.558 0 1.675 0 2.233 0.558 2.233 0.558 2.233 2.791 2.233 1.117 0 2.233 0 3.35 0 2.233-0.558 4.467-1.675 6.7-2.233 2.233-0.558 4.467-1.117 6.7-1.675 0.558 0 1.117 0 2.233 0 2.233 0.558 3.908 0 5.583-1.117 0.558-0.558 1.675-0.558 2.233-1.116 1.117-0.558 2.233-0.558 3.35-1.117 2.792-1.675 5.583-2.792 7.817-4.466 1.675-1.117 3.35-2.233 5.024-3.35 1.675-1.117 3.35-2.233 5.025-3.35 1.117-0.558 2.792-1.675 3.908-2.792 2.233-1.675 3.908-3.35 6.142-4.466 1.117-0.558 1.675-1.117 2.233-1.675 1.117-0.558 1.675-1.675 2.792-2.233 0.558-0.558 1.117-1.117 2.233-1.675 0.558-0.558 0.558-0.558 0.558-1.117 1.675-1.117 3.35-3.35 4.467-5.025 1.117-1.117 2.233-2.233 3.35-3.908 1.675-1.675 2.792-3.908 4.466-6.141 1.117-1.117 2.233-2.792 2.792-3.909 1.117-2.233 2.233-4.467 3.908-6.141v-0.558c1.117-2.233 2.233-4.467 3.35-6.7 1.675-2.792 2.792-6.141 4.466-8.933 0.558-1.117 1.117-2.233 1.117-3.35 1.117-2.233 1.675-4.467 2.233-6.7 0-0.558 0-0.558 0.559-1.116 1.675-3.35 2.792-6.7 3.349-10.608 0.558-2.233 1.117-4.467 1.675-6.7 1.117-3.35 1.117-6.141 1.675-9.491 0.558-2.233 0.558-5.025 0.559-7.258 0.558-3.35 0.558-7.258 0-10.608 0-2.792-0.558-6.141-0.559-8.933 0-2.792-0.558-5.025-1.116-7.817-0.558-2.792-1.117-5.025-1.675-7.816-1.117-2.233-1.675-4.467-2.234-7.258-0.558-2.233-1.675-3.908-1.674-6.142 0-1.675-0.558-3.35-2.234-3.908-1.675-0.558-2.792-1.117-4.466-2.233-3.35-2.233-5.025-5.025-4.467-8.375 0-1.675 0.558-3.908 1.117-5.583 0.558-1.675 1.117-3.35 0-4.467-0.558-1.675-1.675-2.792-2.233-3.908-1.117-1.675-1.675-2.792-2.792-3.908-1.117-2.233-2.233-4.467-3.908-6.141-2.233-2.792-3.908-5.583-6.7-7.817l-0.558-0.558c-1.675-2.233-3.35-4.467-5.583-6.142-1.117-1.117-2.233-2.233-3.35-2.791-0.558-0.558-1.117-1.117-2.233-1.675-1.675-1.117-3.35-1.675-4.467-2.792-1.675-1.675-3.908-2.792-5.583-3.908 0 0-0.558 0-0.558-0.558-2.233-1.117-3.908-1.675-6.142-2.792-2.233-1.117-4.467-1.675-6.7-1.675-0.558 0-0.558 0-1.116 0-0.558-0.558-1.675-0.558-2.233-0.558-0.558 0-0.558 0-1.117 0-1.117-0.558-2.792 0-3.908 0-2.233 0.558-4.467 0.558-6.7-0.558-2.792-1.117-5.025-2.233-7.258-3.35-1.675-1.117-2.792-2.233-4.467-3.35-3.35-2.792-6.7-6.141-10.608-8.933 0.558-2.792-0.558-3.35-2.791-3.35-1.117 0-2.233 0.558-3.35 1.117-0.558 0.558-0.558 0.558-1.117 1.116-1.675 1.117-2.792 2.792-4.466 3.909-2.792 1.675-3.908 1.117-6.142 0-0.558-0.558-1.117-1.117-1.675-1.675-1.117-1.117-2.233-2.792-2.791-3.909-1.117-2.233-3.35-2.233-5.583-2.233-1.117 0-2.792 0.558-3.908 0.558-2.233 0-4.467 1.117-5.584 2.792-1.117 1.675-2.233 3.35-3.908 5.025-0.558 0.558-1.675 1.117-2.233 2.233-1.117 1.117-2.233 1.117-3.35 0-0.558-0.558-1.117-0.558-1.675-1.117-0.558 0.558-1.117 1.117-1.117 1.675-0.558 1.117-1.117 2.233-1.674 3.909-0.558 1.675-1.675 3.35-2.792 4.466-0.558 0.558-0.558 0.558-1.117 1.117-0.558 1.117-2.233 1.675-3.35 1.675-1.117 1.117-2.233 2.792-2.791 3.908-0.558 1.117-1.117 2.233-1.675 3.908-0.558 0.558-0.558 1.675-1.117 2.233-0.558 1.117-0.558 1.675-0.558 2.792 0.558 1.675-0.558 2.233-2.233 2.791-1.117 0-1.117 0-1.675 1.117 0 1.675 0.558 2.792 1.116 4.467 0.558 0.558 1.117 1.675 1.117 2.233 0 1.117 0.558 1.675 1.675 2.233 0.558 0.558 1.117 1.117 1.675 1.117 0.558 0 0.558 0.558 1.117 0.558 0.558 0.558 1.117 0 1.116-0.558 0.558-1.675 1.117-3.35 1.117-5.025 0.558-2.233 0.558-3.908 1.116-6.142 0.558-1.117 1.117-1.675 1.675-2.233 0 0 0.558 0 1.117 0v0.559c-0.558 2.792-1.675 6.141-2.233 8.933-0.558 1.117-0.558 2.233-1.117 3.349 0 0.558-0.558 1.117-1.116 1.117-1.117 0.558-2.233 1.117-3.35 1.117-0.558 0-1.117 0-1.675 0-1.117-0.558-2.233-1.675-3.35-2.234-0.558-0.558-1.117-1.117-1.675-1.674-0.558-1.117-1.117-2.233-1.675-3.35-0.558-1.117-1.117-1.675-2.233-2.234-0.558-0.558-1.117-0.558-1.675-1.116-1.117-1.117-2.233-1.675-3.908-1.675-0.558 0-1.675 0-2.234 0-0.558 0-1.675 0.558-2.233 1.116-1.117 0.558-1.675 0.558-2.791 0-2.792-1.117-5.583-0.558-8.375 0.559-1.117 0.558-2.233 1.117-3.35 1.116-2.792 0-5.025 0-7.816 0-2.792 0-5.025-0.558-7.817-1.116-1.117 0-2.233 0-3.35 0-2.233 0.558-2.792 2.233-2.233 4.466 0.558 2.233 1.117 5.025 1.117 7.258 0 1.675 0 3.35 0 5.025 0 1.117 0 1.675 0 2.792 0 1.675-0.558 3.35-0.559 5.025-0.558 3.35-2.233 6.141-4.466 8.374-1.675 1.675-3.908 3.35-6.142 3.908-1.117 0.558-2.233 1.117-3.908 1.675-2.792 1.117-5.025 3.35-6.7 6.142-0.558 1.117-1.117 2.233-1.674 3.35-1.117 1.675-1.675 2.792-2.792 4.466-0.558 1.117-1.675 2.233-2.233 3.35-0.558 1.117-1.675 1.675-1.675 2.792-1.117 2.233-1.675 4.467-2.792 6.699-0.558 1.117-0.558 2.792-1.116 3.909-1.117 2.233-1.117 4.467-1.117 7.258 0 0.558 0 1.117 0 2.233 0 2.792-0.558 6.141-0.558 8.933 0 2.792 0 5.583 0.558 8.375 0 1.117 0 2.792 0 3.908 0 2.233 0.558 5.025 0.558 7.258 0 2.233 0 5.025 1.117 7.258v0.558c0.558 2.233 0.558 4.467 1.116 6.7 0 0.558 0 1.117 0.559 1.675 1.117 3.35 1.675 6.141 2.791 9.491 0.558 2.233 1.675 4.467 2.234 6.7 0.558 2.233 2.792 4.467 3.349 7.258v0c1.675 3.35 3.35 6.7 5.584 10.05 0.558 1.117 1.675 2.233 2.233 3.35 1.117 1.675 1.675 3.35 2.791 4.466 0.558 1.117 1.675 2.233 2.234 2.792 0.558 1.117 1.117 2.233 2.233 3.35 1.117 1.117 2.233 2.792 3.35 3.908 1.675 2.792 3.908 5.025 6.141 6.7 1.117 1.117 2.233 1.675 3.35 2.791 0.558 0.558 1.117 0.558 1.117 1.117 0.558 0.558 1.117 1.117 2.233 1.675 4.467 2.233 7.816 5.583 11.725 8.933 1.675 1.675 3.35 3.35 5.583 4.466 2.233 1.675 3.908 3.35 6.7 3.908 0 0 0.558 0 0.558 0.559 1.117 1.117 2.792 1.675 3.908 2.233 2.233 1.117 5.025 2.233 7.258 3.35 0.558 0.558 1.675 0.558 2.233 1.117 1.675 0.558 3.35 1.117 5.025 1.674 1.675 0.558 2.792 1.117 4.467 1.117h0.558c1.117 0.558 1.675 0.558 2.792 0 0.558 0 1.117 0 1.116 0.558 0 0.558 0.558 0.558 1.117 0.559 0.558 0 1.117 0 2.233 0 0.558-0.558 0.558-1.117 1.117-2.234 0.558 0.558 1.117 0.558 1.116 0.559 0.558 1.117 1.675 1.117 2.792 1.116h0.558c1.117 0 1.675 0 2.233-0.558 0-0.558 1.117-0.558 1.675-0.558 1.675 0.558 3.35 0.558 5.025 1.116 1.117 0.558 2.792 0.558 3.35-0.558 0.558-0.558 1.117-1.117 2.233-0.558 1.117 0.558 1.675 0.558 2.792 0 0.558 0 1.117 0 1.117 0 1.675 0.558 2.792 0.558 4.466 1.116 2.233 0.558 2.233 0.558 3.908-1.116 0.558-0.558 1.675-0.558 2.233 0 0.558 1.117 0.558 1.675 0.559 2.791 0.558 0 0.558 0 1.116-0.558 0-1.117 0.558-1.117 1.675-1.675 0.558 0.558 0.558 0.558 1.117 0.558 1.117 1.117 1.675 1.117 2.233-0.558 0-0.558 0-1.117 0.559-1.116 0.558 0 1.117 0.558 1.116 0.558 0.558 1.117 1.675 1.675 2.233 2.791 1.117 1.117 2.792 1.117 3.35 0 0.558-0.558 1.117-0.558 1.675-0.558 0-0.558 0-1.117 0-1.675 1.675 1.117 1.117 1.117 0.559 1.117zM89.417 34.559c1.675 0.558 2.792 0.558 3.349-0.558-1.117 0.558-2.233-0.558-3.349 0.558z" fill="#fce44d" fill-rule="nonzero" stroke="none" stroke-width="1" stroke-linecap="butt" stroke-linejoin="miter" stroke-miterlimit="10" stroke-dasharray="" stroke-dashoffset="0" font-family="none" font-weight="none" font-size="none" text-anchor="none" style="mix-blend-mode: normal" data-fill-palette-color="tertiary"></path></g><g transform="matrix(1,0,0,1,73.57686685552407,90)"><svg viewBox="0 0 172.84626628895185 180" height="180" width="172.84626628895185"><g><svg viewBox="0 0 172.84626628895185 180" height="180" width="172.84626628895185"><g><svg viewBox="0 0 172.84626628895185 180" height="180" width="172.84626628895185"><g id="textblocktransform"><svg viewBox="0 0 172.84626628895185 180" height="180" width="172.84626628895185" id="textblock"><g><svg viewBox="0 0 172.84626628895185 180" height="180" width="172.84626628895185"><path d="M172.442 38.607C171.629 19.923 169.313 14.728 169.313 14.728 162.203-4.516 153.33-0.368 145.358 2.397 131.284 2.509 117.267 6.62 103.225 8.824 73.753 9.161 44.028 3.63 14.702 17.27 11.947 21.455-2.858 18.092 0.49 40.998 1.368 50.527 4.569 61.102 4.472 69.846 4.91 71.378 5.52 67.866 5.78 70.07 6.69 76.012 8.177 73.209 9.396 76.722 7.698 86.101 8.917 93.911 10.079 102.095 8.031 104.225 5.406 103.216 4.228 110.278 4.106 115.398 3.448 114.426 2.725 114.202 2.196 114.052 1.132 114.613 1.311 116.22 1.92 121.713-0.696 124.889 0.945 130.27-0.184 136.099 1.725 141.144 1.465 147.459 1.433 148.73 1.611 149.813 1.896 150.112 3.155 151.719 1.319 154.858 1.514 158.258 14.434 181.501 28.451 165.433 41.688 176.12 45.125 168.647 42.541 178.773 43.915 177.204 44.987 175.373 45.767 182.959 46.978 178.661 47.165 177.428 46.881 174.514 47.547 175.074 47.896 175.373 48.205 175.298 48.254 173.579 48.327 171.001 47.685 172.608 47.514 171.263 49.359 164.462 48.904 180.642 50.635 179.969 50.553 177.989 50.05 175.149 51.082 175.522 52.106 172.682 52.138 170.328 53.048 176.718 53.081 178.101 53.243 179.072 53.503 179.745 56.347 172.795 59.175 182.211 62.157 179.072 63.986 175.635 65.741 180.941 67.593 179.633 68.244 178.587 68.902 176.718 69.527 179.857 77.19 180.53 85.357 177.727 92.621 179.969 112.034 175.784 132.779 181.688 153.248 176.158 158.075 174.028 163.089 171.001 167.794 168.572 167.794 168.572 171.605 161.921 171.605 132.026S172.417 105.869 172.539 82.065C172.661 58.262 173.23 57.29 172.417 38.607Z" opacity="1" fill="#fce44d" data-fill-palette-color="tertiary"></path><g transform="matrix(1,0,0,1,27.072000000000003,19.1)"><svg width="118.70226628895185" viewBox="2.4000000953674316 -34.79999923706055 29.55000114440918 35.29999923706055" height="141.8" data-palette-color="#ffffff"><path d="M10.5-13.6Q10.5-9.8 12.58-7.73 14.65-5.65 17.8-5.65L17.8-5.65Q20.9-5.65 22.65-7.5 24.4-9.35 24.4-13.05L24.4-13.05 16.65-13.05 16.65-18.65 31.65-18.65 31.65-6.8Q31.65-4.3 31.78-2.4 31.9-0.5 31.95 0L31.95 0 27.7 0Q27.05-1.8 26.5-3.85L26.5-3.85Q24.9-1.8 22.33-0.65 19.75 0.5 16.85 0.5L16.85 0.5 16.6 0.5Q12.5 0.5 9.28-1.35 6.05-3.2 4.23-6.65 2.4-10.1 2.4-14.7L2.4-14.7 2.4-19.6Q2.4-24.2 4.3-27.65 6.2-31.1 9.63-32.95 13.05-34.8 17.4-34.8L17.4-34.8 18.1-34.8Q21.85-34.8 24.95-33.23 28.05-31.65 29.85-28.78 31.65-25.9 31.65-22.1L31.65-22.1 24.35-22.1Q24.35-25.35 22.45-27 20.55-28.65 17.65-28.65L17.65-28.65Q14.5-28.65 12.5-26.58 10.5-24.5 10.5-20.7L10.5-20.7 10.5-13.6Z" opacity="1" transform="matrix(1,0,0,1,0,0)" fill="#ffffff" class="wordmark-text-0" data-fill-palette-color="quaternary" id="text-0"></path></svg></g></svg></g></svg></g></svg></g><g></g></svg></g></svg></g></svg></g><defs></defs></svg><rect width="320" height="360" fill="none" stroke="none" visibility="hidden"></rect></g></svg></g></svg>